<svg xmlns="http://www.w3.org/2000/svg" width="35.097" height="23.398" viewBox="0 0 35.097 23.398">
  <g id="credit-card" transform="translate(0 -85.333)">
    <g id="Group_98" data-name="Group 98" transform="translate(0 94.107)">
      <g id="Group_97" data-name="Group 97" transform="translate(0 0)">
        <path id="Path_42" data-name="Path 42" d="M34.366,213.333H.731a.691.691,0,0,0-.731.731V224.3a3.62,3.62,0,0,0,3.656,3.656H31.441A3.62,3.62,0,0,0,35.1,224.3V214.064A.691.691,0,0,0,34.366,213.333Zm-29.247,5.85h5.849a.731.731,0,1,1,0,1.462H5.118a.731.731,0,1,1,0-1.462Zm10.237,4.387H5.118a.731.731,0,0,1,0-1.462H15.355a.731.731,0,0,1,0,1.462Zm12.43,0a2.47,2.47,0,0,1-1.462-.439,2.47,2.47,0,0,1-1.462.439,2.925,2.925,0,0,1,0-5.85,2.47,2.47,0,0,1,1.462.439,2.47,2.47,0,0,1,1.462-.439,2.925,2.925,0,0,1,0,5.85Z" transform="translate(0 -213.333)"/>
      </g>
    </g>
    <g id="Group_100" data-name="Group 100" transform="translate(0 85.333)">
      <g id="Group_99" data-name="Group 99" transform="translate(0 0)">
        <path id="Path_43" data-name="Path 43" d="M31.441,85.333H3.656A3.62,3.62,0,0,0,0,88.989v1.462a.691.691,0,0,0,.731.731H34.366a.691.691,0,0,0,.731-.731V88.989A3.621,3.621,0,0,0,31.441,85.333Z" transform="translate(0 -85.333)"/>
      </g>
    </g>
  </g>
</svg>
