<svg xmlns="http://www.w3.org/2000/svg" width="35.102" height="23.397" viewBox="0 0 35.102 23.397">
  <g id="credit-card-read" transform="translate(0.001 -85.333)">
    <g id="Group_98" data-name="Group 98" transform="translate(-0.001 94.106)">
      <g id="Group_97" data-name="Group 97" transform="translate(0 0)">
        <path id="Path_42" data-name="Path 42" d="M34.366,213.333H.731a.691.691,0,0,0-.731.731V224.3a3.62,3.62,0,0,0,3.656,3.656H31.441A3.62,3.62,0,0,0,35.1,224.3V214.064a.691.691,0,0,0-.734-.731Zm-29.247,5.85h5.849a.731.731,0,0,1,0,1.462H5.118a.731.731,0,1,1,0-1.462Zm10.237,4.387H5.118a.731.731,0,0,1,0-1.462H15.355a.731.731,0,0,1,0,1.462Zm12.43,0a2.47,2.47,0,0,1-1.462-.439,2.47,2.47,0,0,1-1.462.439,2.925,2.925,0,0,1,0-5.85,2.47,2.47,0,0,1,1.462.439,2.47,2.47,0,0,1,1.462-.439,2.925,2.925,0,0,1,0,5.85Z" transform="translate(0.001 -213.332)" fill="#2698dd"/>
      </g>
    </g>
    <g id="Group_100" data-name="Group 100" transform="translate(-0.001 85.333)">
      <g id="Group_99" data-name="Group 99" transform="translate(0 0)">
        <path id="Path_43" data-name="Path 43" d="M31.441,85.333H3.656A3.62,3.62,0,0,0,0,88.989v1.462a.691.691,0,0,0,.731.731H34.366a.691.691,0,0,0,.731-.731V88.989a3.621,3.621,0,0,0-3.656-3.656Z" transform="translate(0.001 -85.333)" fill="#2698dd"/>
      </g>
    </g>
  </g>
</svg>
