<svg xmlns="http://www.w3.org/2000/svg" width="28.044" height="28.036" viewBox="0 0 28.044 28.036">
  <path id="golf-sticks" d="M27.858,22.588a2.6,2.6,0,0,0-1.3-1.631,2.529,2.529,0,0,0-2.1-.179l-4.7,1.691a2.7,2.7,0,0,0-1.33,1.018l-3.461-6.223L23.883,1.222a.821.821,0,0,0-1.436-.8L14.022,15.575,5.6.423a.821.821,0,0,0-1.436.8l8.922,16.043L9.621,23.488a2.7,2.7,0,0,0-1.33-1.018l-4.7-1.691a2.529,2.529,0,0,0-2.1.179,2.6,2.6,0,0,0-1.3,1.631,5.687,5.687,0,0,0,.353,3.818,2.617,2.617,0,0,0,2.45,1.63H7.464a2.6,2.6,0,0,0,2.057-1.011L9.537,27a2.6,2.6,0,0,0,.335-.588l4.149-7.461,4.149,7.461a2.6,2.6,0,0,0,.335.588l.017.022a2.6,2.6,0,0,0,2.057,1.011h4.475a2.616,2.616,0,0,0,2.45-1.63,5.686,5.686,0,0,0,.353-3.818Zm0,0" transform="translate(0 -0.001)" fill="#b90b0c"/>
</svg>
