<svg xmlns="http://www.w3.org/2000/svg" height="512pt" width="512pt" style=""><rect id="backgroundrect" width="100%" height="100%" x="0" y="0" fill="none" stroke="none"/><g class="currentLayer" style=""><title>Layer 1</title><path d="m508.617188 412.382812c-3.617188-13.058593-11.835938-23.355468-23.769532-29.773437-12.441406-6.695313-25.714844-7.820313-38.390625-3.265625l-85.835937 30.871094c-10.261719 3.691406-18.621094 10.265625-24.28125 18.589844l-63.179688-113.617188 162.878906-292.898438c4.027344-7.238281 1.421876-16.371093-5.816406-20.394531-7.234375-4.027343-16.371094-1.421875-20.398437 5.816407l-153.824219 276.617187-153.828125-276.617187c-4.023437-7.238282-13.15625-9.84375-20.394531-5.816407-7.238282 4.023438-9.84375 13.15625-5.820313 20.394531l162.882813 292.898438-63.179688 113.617188c-5.660156-8.324219-14.019531-14.898438-24.28125-18.589844l-85.835937-30.871094c-12.675781-4.554688-25.949219-3.425781-38.390625 3.265625-11.933594 6.417969-20.152344 16.714844-23.769532 29.773437-6.085937 22.003907-3.976562 44.804688 6.449219 69.710938 7.6875 18.359375 24.828125 29.765625 44.734375 29.765625h81.703125c15.261719 0 28.855469-7.246094 37.550781-18.464844.101563-.128906.207032-.257812.304688-.386719 2.480469-3.273437 4.546875-6.878906 6.121094-10.738281l75.753906-136.222656 75.753906 136.222656c1.574219 3.855469 3.636719 7.460938 6.121094 10.734375.101562.136719.203125.265625.308594.394532 8.695312 11.21875 22.289062 18.460937 37.546875 18.460937h81.703125c19.90625 0 37.046875-11.40625 44.730468-29.765625 10.429688-24.90625 12.539063-47.707031 6.453126-69.710938zm0 0" id="svg_1" class="selected" fill="#b6b6b6" fill-opacity="1"/></g></svg>