<svg xmlns="http://www.w3.org/2000/svg" width="44" height="30.8" viewBox="0 0 44 30.8">
  <path id="users-solid" d="M6.6,45.2a4.4,4.4,0,1,0-4.4-4.4A4.4,4.4,0,0,0,6.6,45.2Zm30.8,0A4.4,4.4,0,1,0,33,40.8,4.4,4.4,0,0,0,37.4,45.2Zm2.2,2.2H35.2a4.387,4.387,0,0,0-3.1,1.279A10.056,10.056,0,0,1,37.262,56.2H41.8A2.2,2.2,0,0,0,44,54V51.8A4.4,4.4,0,0,0,39.6,47.4ZM22,47.4a7.7,7.7,0,1,0-7.7-7.7A7.7,7.7,0,0,0,22,47.4Zm5.28,2.2h-.571a10.631,10.631,0,0,1-9.419,0H16.72A7.922,7.922,0,0,0,8.8,57.52V59.5a3.3,3.3,0,0,0,3.3,3.3H31.9a3.3,3.3,0,0,0,3.3-3.3V57.52A7.922,7.922,0,0,0,27.28,49.6ZM11.9,48.679A4.387,4.387,0,0,0,8.8,47.4H4.4A4.4,4.4,0,0,0,0,51.8V54a2.2,2.2,0,0,0,2.2,2.2H6.731a10.082,10.082,0,0,1,5.17-7.521Z" transform="translate(0 -32)" fill="#2698dd"/>
</svg>
